<svg width="108" height="20" viewBox="0 0 108 20" fill="none" xmlns="http://www.w3.org/2000/svg">
<path fill-rule="evenodd" clip-rule="evenodd" d="M0 19.3512V-3.8147e-06H17.5153V2.27018H3.2184V8.21604H16.6006V10.4866H3.2184V17.081H18.0915V19.3512H0ZM20.0676 19.3512L29.4409 9.31057L21.1856 -3.8147e-06H25.0083L29.4295 4.95028C30.3499 5.97719 30.988 6.76116 31.3549 7.30635C31.9027 6.63046 32.5465 5.90976 33.286 5.14861L38.1307 -3.8147e-06H41.6487L33.2241 9.19813L42.2925 19.3512H38.3512L32.2301 12.4502C31.8801 12.0583 31.547 11.6664 31.2366 11.2789C30.6942 11.9278 30.3104 12.3828 30.0733 12.6394L23.924 19.3512H20.0676ZM61.0163 -3.8147e-06H64.2347V11.1754C64.2347 13.1215 63.9581 14.6664 63.4102 15.8105C62.8569 16.9505 61.8632 17.8829 60.4289 18.5988C58.989 19.3151 57.1089 19.6755 54.7711 19.6755C52.507 19.6755 50.6492 19.3647 49.2095 18.7384C47.7639 18.1126 46.7363 17.2115 46.1208 16.0267C45.5051 14.8422 45.1947 13.2252 45.1947 11.1754V-3.8147e-06H48.4131V11.171C48.4131 12.8512 48.6107 14.0945 49.0005 14.8874C49.39 15.6846 50.0564 16.3016 51.0106 16.7296C51.9591 17.1619 53.1224 17.3781 54.4947 17.3781C56.8434 17.3781 58.5205 16.9505 59.52 16.0991C60.5194 15.2432 61.0163 13.6034 61.0163 11.171V-3.8147e-06ZM66.9339 19.3512L76.2391 -3.8147e-06H79.7682L89.6442 19.3512H85.9908L83.1845 13.4864H72.97L70.3385 19.3512H66.9339ZM73.9131 11.4052H82.1791L79.6497 6.04025C78.8876 4.40987 78.3114 3.06286 77.9105 1.99986C77.5774 3.26119 77.1315 4.49969 76.5722 5.72534L73.9131 11.4052ZM92.055 19.3512V-3.8147e-06H95.2734V17.081H107.199V19.3512H92.055Z" fill="white"/>
</svg>
