<svg width="420" height="60" viewBox="0 0 420 60" fill="none" xmlns="http://www.w3.org/2000/svg">
<path fill-rule="evenodd" clip-rule="evenodd" d="M13.0889 57.555C13.0889 58.2301 12.7459 58.8413 12.1914 59.2838C11.6369 59.7263 10.8707 60 10.0246 60C9.17849 60 8.41237 59.7263 7.85784 59.2838C7.30331 58.8413 6.96025 58.2301 6.96025 57.555H6.96254L6.97507 53.3832H8.12834L8.11577 57.555H8.11803C8.11803 57.9751 8.33145 58.3555 8.67646 58.6307C9.02138 58.9059 9.49809 59.0762 10.0246 59.0762C10.5511 59.0762 11.0278 58.906 11.3728 58.6307C11.7178 58.3555 11.9312 57.9751 11.9312 57.555H11.9335L11.946 53.3832H13.0993L13.0867 57.555H13.0889Z" fill="#EA3333"/>
<path fill-rule="evenodd" clip-rule="evenodd" d="M3.07405 54.307C1.37639 54.307 0 53.2088 0 51.8543C0 50.4998 1.37639 49.4016 3.07405 49.4016H6.98693L7.0147 40.1776C7.02043 38.262 7.50218 36.4355 8.36943 34.7709C9.30765 32.9704 10.7025 31.345 12.4559 29.996C12.1861 29.8064 11.9239 29.6099 11.67 29.4074C10.1107 28.1633 8.85296 26.6748 7.99285 25.0179C7.16537 23.424 6.70869 21.679 6.70869 19.8515C6.70869 18.3289 7.03256 16.8486 7.63418 15.4589C8.25118 14.0339 9.16016 12.7086 10.3115 11.5336C11.4625 10.359 12.8553 9.33648 14.44 8.516C15.9838 7.71669 17.7094 7.10954 19.5708 6.74033C20.3938 6.57883 21.2201 6.69844 21.8906 7.02231C22.5622 7.34661 23.0789 7.8756 23.2813 8.53198C23.4838 9.18879 23.334 9.84776 22.9281 10.3828C22.5217 10.9187 21.8587 11.3311 21.0358 11.4926C19.8487 11.7279 18.7497 12.1144 17.7681 12.6218C16.7575 13.1448 15.8704 13.7955 15.1388 14.5422C14.4103 15.2853 13.8341 16.1291 13.4419 17.0403C13.0616 17.9247 12.8568 18.8717 12.8568 19.8515C12.8568 21.0209 13.1469 22.1333 13.6726 23.1455C14.2177 24.1961 15.0197 25.1435 16.0169 25.939C17.0141 26.7348 18.2017 27.3748 19.5182 27.8096C20.7872 28.2289 22.1814 28.4604 23.6467 28.4604C25.112 28.4604 26.5063 28.2289 27.7752 27.8096C29.0917 27.3748 30.2793 26.7348 31.2765 25.939C32.2737 25.1435 33.0756 24.1961 33.621 23.1455C34.1465 22.1333 34.4366 21.0209 34.4366 19.8515C34.4366 19.4443 34.4031 19.0474 34.337 18.6631C34.2705 18.274 34.1703 17.8893 34.0367 17.5118C33.9019 17.131 33.7357 16.7587 33.5382 16.3982C33.3413 16.0389 33.1125 15.6882 32.8524 15.3497C32.4116 14.7732 32.3056 14.1082 32.4903 13.4997C32.6751 12.8908 33.1506 12.3381 33.8732 11.9866C34.5957 11.6351 35.4287 11.5505 36.1918 11.6977C36.9549 11.845 37.6472 12.2245 38.0877 12.801C38.4936 13.3296 38.8519 13.8789 39.1621 14.4446C39.4738 15.0137 39.7352 15.5967 39.9447 16.19C40.1557 16.7872 40.3154 17.3952 40.4231 18.0093C40.5303 18.6247 40.5844 19.24 40.5844 19.8515C40.5844 21.679 40.1281 23.424 39.3006 25.0179C38.4406 26.6748 37.1828 28.1633 35.6235 29.4074C34.0643 30.6515 32.1983 31.6551 30.1219 32.3412C28.1243 33.0015 25.9371 33.366 23.6467 33.366C21.7041 33.366 19.8358 33.1038 18.0943 32.6215C17.5499 32.9281 17.0394 33.2718 16.5683 33.6475C14.3913 35.3846 13.1462 37.7175 13.1388 40.1776L13.1111 49.4016H16.975C18.6726 49.4016 20.049 50.4998 20.049 51.8543C20.049 53.2088 18.6726 54.307 16.975 54.307H12.1074C12.1316 54.2689 12.1514 54.2287 12.1663 54.1869C12.1959 54.1188 12.2115 54.05 12.2115 53.9709V53.7075C12.2115 53.59 12.1738 53.4795 12.1075 53.3833H16.975C18.0334 53.3833 18.8913 52.6988 18.8913 51.8543C18.8913 51.0097 18.0334 50.3253 16.975 50.3253H13.1083H12.1983H11.955L11.9653 46.8944L11.9856 40.1776C11.9897 38.8069 12.3379 37.4977 12.9648 36.3026C12.9767 36.28 12.9886 36.2574 13.0007 36.2348L13.0123 36.2133C13.0209 36.1973 13.0295 36.1814 13.0382 36.1655L13.05 36.1441C13.0595 36.1267 13.0692 36.1094 13.0788 36.092L13.0882 36.0753C13.1007 36.0529 13.1133 36.0306 13.1261 36.0083L13.1328 35.9967C13.1441 35.9768 13.1555 35.9571 13.1671 35.9374L13.1745 35.9246C13.1859 35.9052 13.1973 35.8858 13.2088 35.8665L13.2158 35.8547C13.2435 35.8083 13.2717 35.762 13.3002 35.716L13.3064 35.7059C13.3184 35.6868 13.3304 35.6676 13.3425 35.6485L13.3511 35.6348C13.3956 35.5648 13.441 35.4951 13.4874 35.426L13.4882 35.4247C13.5038 35.4016 13.5195 35.3784 13.5352 35.3553L13.5362 35.3538C14.3606 34.148 15.4834 33.0814 16.8299 32.2246H16.8298C17.1849 31.9992 17.5544 31.7885 17.9368 31.5942C19.7052 32.1417 21.6305 32.4423 23.6467 32.4423C25.7877 32.4423 27.8263 32.1033 29.6832 31.4897C31.6102 30.8527 33.3475 29.9169 34.8047 28.7545C36.2622 27.5916 37.435 26.2054 38.2333 24.6681C39.0024 23.1865 39.4267 21.5598 39.4267 19.8515C39.4267 19.2728 39.3769 18.6994 39.279 18.1358C39.1794 17.5649 39.03 16.998 38.8325 16.4387C38.636 15.8834 38.393 15.3402 38.104 14.8129C37.816 14.2874 37.4816 13.7757 37.1022 13.2808C36.8272 12.9211 36.3953 12.6844 35.9201 12.5925C35.4449 12.5009 34.9254 12.5536 34.4745 12.7734C34.0237 12.9928 33.7271 13.3369 33.6118 13.7161C33.4968 14.0952 33.5631 14.5098 33.838 14.8695C34.1243 15.2422 34.3771 15.6299 34.5963 16.0298C34.8166 16.4323 35.0017 16.8442 35.1494 17.2631C35.2956 17.6772 35.4065 18.1039 35.4812 18.54C35.5564 18.977 35.5943 19.4153 35.5943 19.8515C35.5943 21.14 35.2723 22.3708 34.6883 23.4957C34.081 24.6651 33.1941 25.7153 32.0951 26.5923C30.996 27.4693 29.6797 28.1767 28.2139 28.6612C26.8042 29.1271 25.2615 29.3841 23.6467 29.3841C22.0319 29.3841 20.4893 29.1271 19.0795 28.6612C17.6137 28.1767 16.2974 27.4693 15.1983 26.5923C14.0992 25.7153 13.2123 24.6651 12.6052 23.4957C12.0213 22.3708 11.6991 21.14 11.6991 19.8515C11.6991 18.7685 11.926 17.7208 12.3475 16.741C12.7795 15.737 13.4186 14.8034 14.2298 13.9756C15.0406 13.1482 16.0222 12.4275 17.1395 11.8497C18.2286 11.2866 19.4463 10.8582 20.7599 10.5974C21.2719 10.4972 21.6845 10.2403 21.9377 9.90649C22.1916 9.57182 22.2856 9.16072 22.1597 8.75221C22.0338 8.3437 21.712 8.01422 21.2936 7.81255C20.8741 7.6096 20.3587 7.53489 19.8466 7.63507C18.112 7.97924 16.5051 8.54451 15.0686 9.28812C13.5906 10.0533 12.2925 11.0064 11.2205 12.1002C10.1461 13.1966 9.2985 14.432 8.72415 15.7586C8.16658 17.0463 7.86653 18.4252 7.86653 19.8515C7.86653 21.5598 8.29096 23.1865 9.06014 24.6681C9.85845 26.2054 11.0311 27.5916 12.4885 28.7545C13.0349 29.1902 13.6206 29.5944 14.2408 29.9627C13.8296 30.2326 13.4353 30.5181 13.059 30.8177L13.0477 30.8264C12.9998 30.8648 12.9521 30.9032 12.9048 30.9417L12.8948 30.9499C12.8556 30.9823 12.8166 31.0142 12.7778 31.0466L12.7294 31.0872C12.704 31.1088 12.6789 31.13 12.6537 31.1515C12.6177 31.1822 12.5819 31.2133 12.5463 31.244C12.5292 31.2591 12.512 31.2738 12.4949 31.2889C12.4679 31.3122 12.4411 31.3364 12.4144 31.3601L12.3816 31.3891C11.7825 31.9254 11.2418 32.4963 10.7628 33.0961L10.7627 33.0965C10.6873 33.1911 10.6134 33.2861 10.541 33.3819L10.5125 33.4199C10.4935 33.4454 10.4747 33.4705 10.456 33.4959C10.4413 33.5158 10.4268 33.5357 10.4123 33.556C10.3898 33.5866 10.3674 33.6177 10.3453 33.6484C10.3248 33.6773 10.3044 33.7058 10.2842 33.7347C10.2737 33.7494 10.2633 33.7645 10.2529 33.7792C10.2284 33.8146 10.204 33.85 10.1798 33.8854L10.1653 33.9066C10.1005 34.0021 10.0372 34.0983 9.97536 34.1951L9.97503 34.1956C9.781 34.4989 9.60131 34.8088 9.43678 35.1245C8.65114 36.6325 8.20333 38.2789 8.16994 40.0019L8.16978 40.0086C8.16875 40.0648 8.16805 40.1212 8.16788 40.1776L8.13741 50.3253H7.95567H6.98417H3.07405C2.01563 50.3253 1.15773 51.0098 1.15773 51.8543C1.15773 52.6988 2.01563 53.3833 3.07405 53.3833H7.67716C7.69209 53.4357 7.71472 53.4858 7.74389 53.5328C7.75888 53.5848 7.78177 53.6357 7.81235 53.6843C7.82724 53.7168 7.84483 53.7461 7.86404 53.7769C7.87854 53.8093 7.8904 53.8423 7.90712 53.874V53.9604H7.90718C7.90718 54.0868 7.94917 54.1973 8.02522 54.307H3.07405Z" fill="#EA3333"/>
<path fill-rule="evenodd" clip-rule="evenodd" d="M72.0059 35.609H68.3586H67.6987H67.2004V16.1097C67.2004 14.3238 66.753 12.6197 65.9428 11.0648C64.2585 7.83171 61 5.23185 56.9479 3.888C55.1488 3.29115 53.2396 2.95778 51.2979 2.89545C50.0332 2.88034 49.8249 3.03616 49.6828 3.09425C48.8052 2.61875 47.8482 2.20322 46.8581 1.876C45.0016 1.26263 42.9628 0.923592 40.8217 0.923592C38.6805 0.923592 36.6421 1.26263 34.7852 1.876C32.8581 2.51298 31.1209 3.44886 29.6636 4.61139C28.2061 5.77438 27.0334 7.16026 26.2351 8.69818C25.4659 10.1794 25.0414 11.8061 25.0414 13.5145C25.0414 14.1708 25.1057 14.8201 25.232 15.4557C25.3604 16.1021 25.5525 16.7424 25.8059 17.3704C26.0557 17.9894 26.3672 18.5948 26.738 19.1808C27.1072 19.7644 27.5328 20.3253 28.0125 20.858C28.3201 21.1989 28.7724 21.4086 29.255 21.4714C29.7377 21.5337 30.2499 21.4501 30.6774 21.2046C31.1047 20.959 31.3671 20.5983 31.4457 20.213C31.5244 19.8281 31.4192 19.4192 31.1115 19.0783C30.747 18.6736 30.4257 18.2501 30.1493 17.8124C29.8704 17.3709 29.6347 16.9114 29.4439 16.4383C29.2568 15.9751 29.1146 15.4949 29.019 15.0024C28.9229 14.5075 28.8741 14.0103 28.8741 13.5145C28.8741 12.2259 29.1963 10.9949 29.7802 9.87015C30.3873 8.70101 31.2742 7.65039 32.3733 6.77354C33.4724 5.89669 34.7886 5.18888 36.2545 4.70488C37.6642 4.23883 39.2066 3.98149 40.8217 3.98149C42.4361 3.98149 43.979 4.23883 45.3887 4.70488C46.8546 5.18888 48.1707 5.89669 49.2703 6.77354C50.3693 7.65039 51.2559 8.70101 51.8631 9.87015C52.4472 10.9949 52.7691 12.2259 52.7691 13.5145C52.7691 14.567 52.5519 15.5907 52.1465 16.5535C51.7311 17.5409 51.1191 18.4597 50.3433 19.2766C49.5662 20.0949 48.6235 20.8131 47.547 21.3977C46.4983 21.9676 45.323 22.4105 44.0512 22.6953C43.5428 22.8091 43.141 23.0763 42.9013 23.4168C42.661 23.7577 42.5835 24.1713 42.7261 24.5769C42.8687 24.9821 43.2037 25.3032 43.6304 25.4944C44.0577 25.6861 44.5761 25.7475 45.0845 25.6337C46.7652 25.2574 48.3175 24.6723 49.7024 23.9197C51.1239 23.1472 52.3696 22.1976 53.3976 21.1163C54.4262 20.0331 55.2358 18.82 55.7832 17.522C56.3158 16.2579 56.6017 14.9084 56.6017 13.5145C56.6017 11.8061 56.1773 10.1794 55.4086 8.69818C54.9594 7.8336 54.3924 7.01719 53.7231 6.26168C54.3191 6.38115 54.8967 6.52564 55.4571 6.7079C58.5712 7.73539 61.09 9.72566 62.3979 12.2335C63.0228 13.4309 63.3678 14.7408 63.3678 16.1097V35.609H62.9394H62.2103H58.5629C58.4043 35.609 58.254 35.6779 58.1392 35.7893C57.9995 35.9253 57.9125 36.1202 57.9125 36.3417C57.9125 36.5527 57.9977 36.781 58.1859 36.9348L64.8586 43.2629L64.8598 43.2621C65.1066 43.4956 65.4622 43.4956 65.709 43.2621L65.7102 43.2629L72.3829 36.9348C72.5705 36.781 72.6557 36.5527 72.6557 36.3417C72.6557 36.1202 72.5693 35.9253 72.4296 35.7893C72.3148 35.6779 72.1645 35.609 72.0059 35.609ZM68.3586 34.6853H72.0059C72.5261 34.6853 72.9901 34.8838 73.3203 35.2047C73.6251 35.501 73.8139 35.9035 73.8139 36.3417C73.8139 36.7941 73.6121 37.2466 73.2144 37.5738L66.5908 43.8575C66.2606 44.1697 65.8014 44.3606 65.2841 44.3571C64.7675 44.3606 64.3082 44.1697 63.978 43.8575L57.3545 37.5738C56.9568 37.2466 56.7549 36.7941 56.7549 36.3417C56.7549 35.9035 56.9437 35.501 57.2485 35.2047C57.5788 34.8838 58.0427 34.6853 58.5629 34.6853H62.2103V16.1097C62.2103 14.8631 61.8972 13.6732 61.3308 12.5871C60.3366 10.6823 58.557 9.08915 56.3283 8.07347C56.3786 8.16461 56.4277 8.25574 56.4756 8.34782C57.303 9.94193 57.7598 11.6871 57.7598 13.5145C57.7598 15.0043 57.4515 16.4525 56.8775 17.8143C56.2886 19.2115 55.421 20.5133 54.3197 21.672C53.2171 22.8327 51.8802 23.8517 50.3533 24.6813C48.8661 25.4897 47.1996 26.1177 45.3963 26.5214C44.5802 26.7041 43.7493 26.6059 43.0652 26.299C42.3805 25.9921 41.8425 25.4769 41.6135 24.8258C41.3851 24.1746 41.5082 23.5117 41.8922 22.9658C42.2769 22.4195 42.9232 21.9903 43.7393 21.8076C44.8886 21.5502 45.9491 21.1507 46.896 20.6365C47.8672 20.1086 48.7188 19.4598 49.4207 18.7209C50.1243 17.98 50.6782 17.1499 51.0523 16.2612C51.4162 15.3962 51.6115 14.4716 51.6115 13.5145C51.6115 12.3454 51.3215 11.2329 50.796 10.2205C50.2504 9.1699 49.4485 8.22221 48.4513 7.42657C47.4541 6.63094 46.2669 5.99112 44.9501 5.55624C43.6813 5.13693 42.287 4.90556 40.8217 4.90556C39.3563 4.90556 37.9621 5.13693 36.6931 5.55624C35.3767 5.99112 34.1891 6.63094 33.1919 7.42657C32.1947 8.22221 31.3927 9.1699 30.8475 10.2205C30.3219 11.2329 30.0318 12.3454 30.0318 13.5145C30.0318 13.9782 30.0746 14.4287 30.1587 14.8617C30.2444 15.3027 30.3729 15.7362 30.5428 16.1569C30.7143 16.5818 30.9274 16.9969 31.1804 17.3973C31.4327 17.7968 31.7223 18.1793 32.0477 18.5405C32.5421 19.0887 32.7113 19.7441 32.5853 20.3612C32.4594 20.9779 32.038 21.5568 31.3512 21.9516C30.6644 22.3458 29.8426 22.4809 29.0696 22.3803C28.2962 22.2797 27.5707 21.9435 27.0763 21.3958C26.5576 20.8197 26.1004 20.2177 25.7068 19.5958C25.3104 18.9692 24.9762 18.319 24.7069 17.6518C24.4358 16.9799 24.2302 16.2943 24.0923 15.6002C23.954 14.9042 23.8837 14.2067 23.8837 13.5145C23.8837 11.6871 24.3403 9.94193 25.1678 8.34782C26.0279 6.69138 27.2857 5.20256 28.845 3.95835C30.4042 2.71413 32.2701 1.71073 34.3465 1.02464C36.3441 0.364525 38.5312 -7.62939e-06 40.8217 -7.62939e-06C43.112 -7.62939e-06 45.2993 0.364525 47.2966 1.02464C48.169 1.31268 49.0034 1.65691 49.7941 2.05118C50.0634 1.99121 50.3427 1.96052 50.6256 1.96052C53.0165 1.96052 55.3021 2.34346 57.3911 3.03617C61.7315 4.47587 65.206 7.24809 67.0104 10.7111C67.8786 12.3779 68.3586 14.2015 68.3586 16.1097V34.6853Z" fill="#21B8F1"/>
<path fill-rule="evenodd" clip-rule="evenodd" d="M93 36.4595L96.0153 36.2435C96.1565 37.2163 96.4896 38.0135 97.0146 38.6398C97.5398 39.2614 98.3528 39.7657 99.454 40.1532C100.555 40.536 101.797 40.7299 103.175 40.7299C104.4 40.7299 105.479 40.5855 106.416 40.2928C107.353 40.0001 108.048 39.5991 108.505 39.09C108.963 38.5811 109.194 38.027 109.194 37.4324C109.194 36.8287 108.974 36.3018 108.534 35.8469C108.093 35.3965 107.365 35.0179 106.348 34.7071C105.699 34.509 104.259 34.1936 102.029 33.7659C99.7985 33.3379 98.24 32.9371 97.3479 32.5585C96.1903 32.072 95.332 31.4683 94.7673 30.7524C94.1971 30.036 93.9147 29.2297 93.9147 28.3424C93.9147 27.3603 94.2647 26.446 94.9594 25.5992C95.6539 24.7478 96.6646 24.1037 98.0029 23.6622C99.3354 23.2207 100.821 23 102.452 23C104.248 23 105.835 23.2299 107.207 23.6937C108.579 24.1532 109.635 24.8333 110.374 25.734C111.114 26.6309 111.509 27.6486 111.566 28.7836L108.483 28.9728C108.319 27.7524 107.76 26.8288 106.806 26.2073C105.852 25.5809 104.44 25.2704 102.576 25.2704C100.634 25.2704 99.2168 25.554 98.3305 26.1216C97.4438 26.6892 96.9977 27.3742 96.9977 28.1756C96.9977 28.8693 97.3138 29.4413 97.9407 29.8917C98.5619 30.3381 100.171 30.802 102.78 31.2704C105.388 31.7432 107.178 32.1533 108.15 32.5045C109.556 33.0226 110.6 33.6758 111.272 34.4731C111.944 35.2658 112.277 36.1804 112.277 37.2163C112.277 38.2479 111.91 39.2116 111.171 40.1215C110.431 41.0316 109.375 41.7388 107.991 42.2433C106.608 42.7478 105.055 43 103.322 43C101.131 43 99.2959 42.7434 97.8164 42.2343C96.3315 41.7253 95.1742 40.9596 94.3326 39.9323C93.4857 38.9099 93.0452 37.7521 93 36.4595ZM116.716 42.6756V23.3245H134.231V25.5946H119.934V31.5405H133.316V33.8111H119.934V40.4055H134.807V42.6756H116.716ZM136.783 42.6756L146.156 32.635L137.901 23.3245H141.724L146.145 28.2747C147.065 29.3016 147.704 30.0856 148.07 30.6308C148.618 29.9549 149.262 29.2342 150.001 28.4731L154.846 23.3245H158.364L149.94 32.5226L159.008 42.6756H155.067L148.946 35.7747C148.596 35.3828 148.263 34.9909 147.952 34.6034C147.41 35.2523 147.026 35.7072 146.789 35.9639L140.64 42.6756H136.783ZM177.732 23.3245H180.95V34.4998C180.95 36.446 180.674 37.9909 180.126 39.135C179.572 40.275 178.579 41.2074 177.144 41.9233C175.705 42.6395 173.824 43 171.487 43C169.222 43 167.365 42.6891 165.925 42.0629C164.479 41.437 163.452 40.536 162.836 39.3512C162.221 38.1666 161.91 36.5497 161.91 34.4998V23.3245H165.129V34.4955C165.129 36.1757 165.326 37.4189 165.716 38.2118C166.105 39.0091 166.772 39.6261 167.726 40.054C168.675 40.4864 169.838 40.7025 171.21 40.7025C173.559 40.7025 175.236 40.275 176.235 39.4236C177.235 38.5676 177.732 36.9279 177.732 34.4955V23.3245ZM183.649 42.6756L192.955 23.3245H196.484L206.36 42.6756H202.706L199.9 36.8109H189.686L187.054 42.6756H183.649ZM190.629 34.7297H198.895L196.365 29.3647C195.603 27.7343 195.027 26.3873 194.626 25.3243C194.293 26.5857 193.847 27.8242 193.288 29.0498L190.629 34.7297ZM208.771 42.6756V23.3245H211.989V40.4055H223.915V42.6756H208.771ZM235.902 42.6756V23.3245H245.061C246.67 23.3245 247.901 23.3873 248.754 23.5091C249.945 23.6666 250.944 23.9684 251.752 24.4099C252.559 24.8559 253.209 25.4774 253.7 26.2747C254.191 27.0723 254.434 27.9505 254.434 28.91C254.434 30.5497 253.779 31.9415 252.463 33.0765C251.153 34.216 248.776 34.7839 245.343 34.7839H239.121V42.6756H235.902ZM239.121 32.5133H245.388C247.466 32.5133 248.934 32.2073 249.81 31.5901C250.679 30.9729 251.114 30.108 251.114 28.9867C251.114 28.1801 250.86 27.4864 250.346 26.9101C249.832 26.3334 249.155 25.9506 248.319 25.7658C247.777 25.6533 246.777 25.5946 245.326 25.5946H239.121V32.5133ZM258.566 42.6756V23.3245H269.318C271.481 23.3245 273.124 23.5002 274.247 23.8468C275.371 24.1937 276.27 24.8065 276.941 25.6847C277.612 26.563 277.947 27.5362 277.947 28.5992C277.947 29.973 277.388 31.1308 276.275 32.072C275.163 33.0136 273.447 33.608 271.119 33.8648C271.972 34.1891 272.617 34.5135 273.056 34.8289C273.995 35.5137 274.879 36.374 275.711 37.4055L279.905 42.6756H275.896L272.69 38.6485C271.756 37.482 270.984 36.5945 270.381 35.9775C269.77 35.3602 269.229 34.9322 268.748 34.6847C268.275 34.4418 267.783 34.2702 267.287 34.1712C266.925 34.1127 266.33 34.081 265.501 34.081H261.785V42.6756H258.566ZM261.785 31.865H268.675C270.142 31.865 271.283 31.7432 272.107 31.5C272.932 31.2613 273.558 30.874 273.982 30.3381C274.411 29.8064 274.627 29.2297 274.627 28.6036C274.627 27.6891 274.214 26.9325 273.384 26.3425C272.555 25.7523 271.244 25.4594 269.453 25.4594H261.785V31.865ZM281.983 33.2568C281.983 30.0495 283.067 27.5362 285.23 25.7208C287.393 23.9053 290.183 23 293.605 23C295.846 23 297.861 23.4278 299.663 24.2794C301.457 25.1306 302.83 26.3199 303.774 27.8468C304.715 29.3695 305.191 31.099 305.191 33.0315C305.191 34.9909 304.695 36.748 303.699 38.2927C302.705 39.8422 301.299 41.0135 299.481 41.8063C297.659 42.6036 295.693 43 293.587 43C291.301 43 289.263 42.5587 287.461 41.6801C285.664 40.8019 284.299 39.6034 283.374 38.0811C282.445 36.5632 281.983 34.9548 281.983 33.2568ZM285.303 33.3018C285.303 35.6307 286.088 37.464 287.659 38.8018C289.229 40.1397 291.197 40.8108 293.569 40.8108C295.987 40.8108 297.968 40.1352 299.533 38.7836C301.091 37.4324 301.871 35.5137 301.871 33.0269C301.871 31.4552 301.538 30.0811 300.87 28.91C300.204 27.7387 299.229 26.8288 297.947 26.1846C296.658 25.5405 295.22 25.2162 293.621 25.2162C291.351 25.2162 289.398 25.838 287.76 27.0811C286.122 28.3245 285.303 30.3962 285.303 33.3018ZM309.182 42.6756V23.3245H318.285C320.137 23.3245 321.621 23.518 322.747 23.9097C323.862 24.302 324.739 24.9057 325.371 25.7208C326.01 26.5317 326.325 27.3829 326.325 28.2747C326.325 29.099 326.044 29.8784 325.485 30.6082C324.926 31.3378 324.078 31.9278 322.942 32.3784C324.411 32.7209 325.54 33.3064 326.325 34.1351C327.115 34.9596 327.51 35.9369 327.51 37.0632C327.51 37.9731 327.269 38.8155 326.788 39.5947C326.309 40.3737 325.716 40.9729 325.009 41.3962C324.305 41.8153 323.418 42.135 322.357 42.3513C321.288 42.5677 319.986 42.6756 318.439 42.6756H309.182ZM312.401 31.4594H317.648C319.07 31.4594 320.092 31.383 320.709 31.2343C321.525 31.0407 322.141 30.7163 322.555 30.2657C322.965 29.8151 323.176 29.2521 323.176 28.5722C323.176 27.9279 322.984 27.3603 322.594 26.874C322.209 26.383 321.655 26.045 320.937 25.8652C320.222 25.6847 318.99 25.5946 317.25 25.5946H312.401V31.4594ZM312.401 40.4055H318.444C319.481 40.4055 320.209 40.3737 320.633 40.3107C321.369 40.2071 321.988 40.0314 322.487 39.7839C322.984 39.536 323.389 39.1759 323.712 38.7029C324.034 38.2297 324.19 37.6847 324.19 37.0675C324.19 36.3423 323.959 35.7162 323.491 35.1803C323.028 34.6442 322.383 34.2702 321.559 34.054C320.742 33.8381 319.554 33.7298 318.015 33.7298H312.401V40.4055ZM331.78 42.6756V23.3245H334.999V40.4055H346.923V42.6756H331.78ZM350.826 42.6756V23.3245H368.342V25.5946H354.044V31.5405H367.427V33.8111H354.044V40.4055H368.917V42.6756H350.826ZM373.288 42.6756V23.3245H378.098L383.836 37.0223C384.367 38.2971 384.752 39.252 384.993 39.8875C385.269 39.1848 385.703 38.1488 386.291 36.7837L392.131 23.3245H396.426V42.6756H393.345V26.4865L386.262 42.6756H383.374L376.372 26.1892V42.6756H373.288ZM400.526 36.4595L403.543 36.2435C403.683 37.2163 404.016 38.0135 404.541 38.6398C405.066 39.2614 405.88 39.7657 406.98 40.1532C408.082 40.536 409.323 40.7299 410.701 40.7299C411.928 40.7299 413.004 40.5855 413.943 40.2928C414.879 40.0001 415.576 39.5991 416.031 39.09C416.488 38.5811 416.72 38.027 416.72 37.4324C416.72 36.8287 416.501 36.3018 416.059 35.8469C415.62 35.3965 414.892 35.0179 413.875 34.7071C413.225 34.509 411.785 34.1936 409.554 33.7659C407.326 33.3379 405.766 32.9371 404.874 32.5585C403.717 32.072 402.859 31.4683 402.295 30.7524C401.723 30.036 401.442 29.2297 401.442 28.3424C401.442 27.3603 401.79 26.446 402.487 25.5992C403.181 24.7478 404.19 24.1037 405.529 23.6622C406.863 23.2207 408.348 23 409.978 23C411.774 23 413.361 23.2299 414.733 23.6937C416.106 24.1532 417.162 24.8333 417.9 25.734C418.641 26.6309 419.037 27.6486 419.091 28.7836L416.01 28.9728C415.846 27.7524 415.287 26.8288 414.333 26.2073C413.379 25.5809 411.967 25.2704 410.103 25.2704C408.16 25.2704 406.743 25.554 405.857 26.1216C404.97 26.6892 404.525 27.3742 404.525 28.1756C404.525 28.8693 404.84 29.4413 405.467 29.8917C406.088 30.3381 407.698 30.802 410.305 31.2704C412.916 31.7432 414.705 32.1533 415.677 32.5045C417.081 33.0226 418.127 33.6758 418.797 34.4731C419.471 35.2658 419.804 36.1804 419.804 37.2163C419.804 38.2479 419.437 39.2116 418.696 40.1215C417.958 41.0316 416.902 41.7388 415.519 42.2433C414.135 42.7478 412.583 43 410.849 43C408.657 43 406.821 42.7434 405.342 42.2343C403.857 41.7253 402.7 40.9596 401.858 39.9323C401.013 38.9099 400.571 37.7521 400.526 36.4595Z" fill="white"/>
</svg>
