<svg width="19" height="20" viewBox="0 0 19 20" fill="none" xmlns="http://www.w3.org/2000/svg">
<path fill-rule="evenodd" clip-rule="evenodd" d="M-0.000244141 19.3512V3.24249e-05H9.15834C10.7673 3.24249e-05 11.9984 0.0628916 12.851 0.184668C14.0424 0.342126 15.0419 0.643972 15.8492 1.08544C16.6568 1.53146 17.3063 2.153 17.7975 2.95025C18.2886 3.74791 18.5317 4.62607 18.5317 5.58555C18.5317 7.22527 17.8767 8.61708 16.5608 9.75207C15.2509 10.8916 12.8736 11.4594 9.44046 11.4594H3.21814V19.3512H-0.000244141ZM3.21814 9.18883H9.4857C11.5637 9.18883 13.0317 8.88284 13.9072 8.26566C14.7767 7.64848 15.2114 6.7836 15.2114 5.6623C15.2114 4.85572 14.9574 4.16199 14.4436 3.58568C13.9295 3.00896 13.2519 2.6262 12.4163 2.44136C11.8742 2.32892 10.8747 2.27021 9.4238 2.27021H3.21814V9.18883Z" fill="white"/>
</svg>
