<svg width="162" height="20" viewBox="0 0 162 20" fill="none" xmlns="http://www.w3.org/2000/svg">
<path fill-rule="evenodd" clip-rule="evenodd" d="M0 19.6756V0.324459H10.7514C12.9147 0.324459 14.558 0.500175 15.6812 0.846832C16.8045 1.1937 17.7041 1.80652 18.3749 2.68467C19.0457 3.56304 19.3812 4.53621 19.3812 5.59921C19.3812 6.97297 18.8221 8.13078 17.7093 9.072C16.5965 10.0136 14.8804 10.608 12.5533 10.8648C13.4061 11.1891 14.0509 11.5135 14.4904 11.8289C15.429 12.5137 16.313 13.374 17.1451 14.4055L21.339 19.6756H17.3297L14.1237 15.6485C13.1903 14.482 12.4181 13.5945 11.8149 12.9775C11.2038 12.3602 10.663 11.9322 10.182 11.6847C9.70879 11.4418 9.21737 11.2702 8.72075 11.1712C8.35933 11.1127 7.76391 11.081 6.93448 11.081H3.21892V19.6756H0ZM3.21892 8.86496H10.1092C11.5756 8.86496 12.7171 8.74319 13.5413 8.50005C14.3656 8.26127 14.9922 7.87395 15.416 7.33809C15.845 6.80639 16.0608 6.22966 16.0608 5.60356C16.0608 4.6891 15.6474 3.93251 14.818 3.34251C13.9885 2.7523 12.6781 2.45938 10.8866 2.45938H3.21892V8.86496ZM23.4165 10.2568C23.4165 7.04953 24.5007 4.53621 26.664 2.72077C28.8273 0.905334 31.6172 0 35.039 0C37.2803 0 39.2953 0.427773 41.0972 1.27938C42.8913 2.13056 44.2641 3.3199 45.208 4.84677C46.1492 6.36949 46.625 8.09904 46.625 10.0315C46.625 11.9909 46.1284 13.748 45.1326 15.2927C44.1393 16.8422 42.7327 18.0135 40.9152 18.8063C39.0925 19.6036 37.1268 20 35.0208 20C32.7353 20 30.6968 19.5587 28.8949 18.6801C27.0982 17.8019 25.7332 16.6034 24.8076 15.0811C23.8793 13.5632 23.4165 11.9548 23.4165 10.2568ZM26.7368 10.3018C26.7368 12.6307 27.5221 14.464 29.0925 15.8018C30.663 17.1397 32.6313 17.8108 35.0026 17.8108C37.4207 17.8108 39.4019 17.1352 40.9672 15.7836C42.5247 14.4324 43.3047 12.5137 43.3047 10.0269C43.3047 8.45524 42.9719 7.08106 42.3036 5.90998C41.638 4.73868 40.663 3.82879 39.3811 3.18464C38.0915 2.54049 36.6536 2.21624 35.0546 2.21624C32.7847 2.21624 30.832 2.83798 29.1939 4.08105C27.5559 5.32454 26.7368 7.39618 26.7368 10.3018ZM50.6162 19.6756V0.324459H59.7191C61.5704 0.324459 63.0551 0.518014 64.1809 0.909689C65.2964 1.30199 66.1726 1.90568 66.8044 2.72077C67.444 3.53171 67.7586 4.3829 67.7586 5.27475C67.7586 6.09897 67.4778 6.87837 66.9188 7.6082C66.3598 8.33782 65.5122 8.92782 64.3759 9.37841C65.845 9.72092 66.9734 10.3064 67.7586 11.1351C68.5491 11.9596 68.9443 12.9369 68.9443 14.0632C68.9443 14.9731 68.7025 15.8155 68.2215 16.5947C67.743 17.3737 67.1502 17.9729 66.443 18.3962C65.7384 18.8153 64.8517 19.135 63.7909 19.3513C62.7223 19.5677 61.4196 19.6756 59.8725 19.6756H50.6162ZM53.8351 8.45939H59.0821C60.5043 8.45939 61.5262 8.38304 62.1424 8.2343C62.9589 8.04074 63.5751 7.71628 63.9885 7.26569C64.3993 6.8151 64.6099 6.25207 64.6099 5.57224C64.6099 4.92788 64.4175 4.36029 64.0275 3.87401C63.6427 3.38297 63.0888 3.04502 62.3712 2.86516C61.6562 2.68467 60.4237 2.59464 58.6843 2.59464H53.8351V8.45939ZM53.8351 17.4055H59.8777C60.9152 17.4055 61.6432 17.3737 62.067 17.3107C62.8029 17.2071 63.4217 17.0314 63.9209 16.7839C64.4175 16.536 64.8231 16.1759 65.1455 15.7029C65.468 15.2297 65.624 14.6847 65.624 14.0675C65.624 13.3423 65.3925 12.7162 64.9245 12.1803C64.4617 11.6442 63.8169 11.2702 62.9927 11.054C62.1762 10.8381 60.988 10.7298 59.4487 10.7298H53.8351V17.4055ZM73.2136 19.6756V0.324459H76.4326V17.4055H88.3566V19.6756H73.2136ZM92.2594 19.6756V0.324459H109.776V2.59464H95.4783V8.5405H108.861V10.8111H95.4783V17.4055H110.351V19.6756H92.2594ZM114.722 19.6756V0.324459H119.532L125.27 14.0223C125.801 15.2971 126.186 16.252 126.427 16.8875C126.703 16.1848 127.137 15.1488 127.725 13.7837L133.565 0.324459H137.86V19.6756H134.779V3.48649L127.696 19.6756H124.807L117.805 3.1892V19.6756H114.722ZM141.96 13.4595L144.976 13.2435C145.117 14.2163 145.45 15.0135 145.975 15.6398C146.5 16.2614 147.314 16.7657 148.414 17.1532C149.516 17.536 150.756 17.7299 152.135 17.7299C153.362 17.7299 154.438 17.5855 155.377 17.2928C156.313 17.0001 157.01 16.5991 157.465 16.09C157.922 15.5811 158.154 15.027 158.154 14.4324C158.154 13.8287 157.935 13.3018 157.493 12.8469C157.054 12.3965 156.326 12.0179 155.309 11.7071C154.659 11.509 153.219 11.1936 150.988 10.7659C148.76 10.3379 147.2 9.93709 146.308 9.55848C145.151 9.072 144.293 8.46831 143.728 7.75238C143.156 7.03604 142.876 6.22966 142.876 5.34238C142.876 4.36029 143.224 3.44603 143.921 2.5992C144.615 1.74781 145.624 1.10366 146.963 0.662197C148.297 0.220733 149.781 0 151.412 0C153.208 0 154.794 0.22986 156.167 0.693729C157.54 1.15324 158.596 1.83328 159.334 2.73405C160.075 3.63088 160.47 4.64865 160.525 5.78364L157.444 5.97283C157.28 4.75238 156.721 3.82879 155.767 3.20725C154.813 2.58095 153.401 2.27039 151.537 2.27039C149.594 2.27039 148.177 2.55398 147.291 3.12157C146.404 3.68917 145.959 4.37419 145.959 5.17558C145.959 5.86931 146.274 6.44127 146.901 6.89165C147.522 7.33809 149.131 7.80196 151.739 8.2704C154.35 8.74319 156.139 9.15333 157.111 9.50455C158.515 10.0226 159.56 10.6758 160.231 11.4731C160.905 12.2658 161.237 13.1804 161.237 14.2163C161.237 15.2479 160.871 16.2116 160.13 17.1215C159.391 18.0316 158.336 18.7388 156.953 19.2433C155.569 19.7478 154.017 20 152.283 20C150.091 20 148.255 19.7434 146.776 19.2343C145.291 18.7253 144.134 17.9596 143.292 16.9323C142.447 15.9099 142.005 14.7521 141.96 13.4595Z" fill="white"/>
</svg>
