<svg width="20" height="20" viewBox="0 0 20 20" fill="none" xmlns="http://www.w3.org/2000/svg">
<path d="M3.01534 13.2435L0 13.4595C0.0452418 14.7521 0.485699 15.9099 1.33255 16.9323C2.1742 17.9596 3.33151 18.7253 4.81643 19.2343C6.29589 19.7434 8.13104 20 10.3219 20C12.0554 20 13.6081 19.7478 14.9914 19.2433C16.3749 18.7388 17.4308 18.0316 18.1705 17.1215C18.9103 16.2116 19.2771 15.2479 19.2771 14.2163C19.2771 13.1804 18.9443 12.2658 18.2722 11.4731C17.6001 10.6758 16.5556 10.0226 15.1497 9.50455C14.1783 9.15333 12.3884 8.74319 9.77976 8.2704C7.17134 7.80196 5.56187 7.33809 4.94071 6.89165C4.31382 6.44127 3.99766 5.86931 3.99766 5.17558C3.99766 4.37419 4.44383 3.68917 5.33046 3.12157C6.21684 2.55398 7.63416 2.27039 9.57644 2.27039C11.4399 2.27039 12.8515 2.58095 13.8058 3.20725C14.76 3.82879 15.319 4.75238 15.4828 5.97283L18.5658 5.78364C18.5093 4.64865 18.1141 3.63088 17.3744 2.73405C16.6347 1.83328 15.5788 1.15324 14.2067 0.693729C12.8346 0.22986 11.2478 0 9.45214 0C7.82058 0 6.3354 0.220734 5.00285 0.662197C3.66458 1.10366 2.65392 1.74781 1.95943 2.5992C1.26469 3.44603 0.914714 4.36029 0.914714 5.34238C0.914714 6.22966 1.19709 7.03604 1.76729 7.75238C2.33203 8.46831 3.19032 9.072 4.34789 9.55848C5.23998 9.93709 6.79849 10.3379 9.02885 10.7659C11.259 11.1936 12.6989 11.509 13.3484 11.7071C14.3645 12.0179 15.0933 12.3965 15.5335 12.8469C15.974 13.3018 16.1942 13.8287 16.1942 14.4324C16.1942 15.027 15.9625 15.5811 15.5054 16.09C15.0481 16.5991 14.3533 17.0001 13.416 17.2928C12.4787 17.5855 11.4001 17.7299 10.175 17.7299C8.79745 17.7299 7.55511 17.536 6.45397 17.1532C5.35283 16.7657 4.53977 16.2614 4.01455 15.6398C3.48959 15.0135 3.15652 14.2163 3.01534 13.2435Z" fill="white"/>
</svg>
