<svg width="327" height="143" viewBox="0 0 327 143" fill="none" xmlns="http://www.w3.org/2000/svg">
<path fill-rule="evenodd" clip-rule="evenodd" d="M122.815 95.9255C122.815 97.0506 122.243 98.0694 121.319 98.8068C120.395 99.5443 119.118 100 117.708 100C116.298 100 115.021 99.5443 114.096 98.8068C113.172 98.0694 112.6 97.0506 112.6 95.9255H112.604L112.625 88.9725H114.547L114.526 95.9255H114.53C114.53 96.6257 114.886 97.2596 115.461 97.7182C116.036 98.177 116.83 98.4608 117.708 98.4608C118.585 98.4608 119.38 98.1771 119.955 97.7182C120.53 97.2596 120.885 96.6257 120.885 95.9255H120.889L120.91 88.9725H122.832L122.811 95.9255H122.815Z" fill="#EA3333"/>
<path fill-rule="evenodd" clip-rule="evenodd" d="M106.123 90.5122C103.294 90.5122 101 88.6818 101 86.4243C101 84.1669 103.294 82.3365 106.123 82.3365H112.645L112.691 66.9632C112.701 63.7706 113.504 60.7264 114.949 57.952C116.513 54.9512 118.837 52.2422 121.76 49.9938C121.31 49.6779 120.873 49.3504 120.45 49.0128C117.851 46.9394 115.755 44.4585 114.321 41.697C112.942 39.0405 112.181 36.1321 112.181 33.0863C112.181 30.5486 112.721 28.0814 113.724 25.7654C114.752 23.3904 116.267 21.1816 118.186 19.2232C120.104 17.2656 122.426 15.5613 125.067 14.1939C127.64 12.8617 130.516 11.8498 133.618 11.2344C134.99 10.9652 136.367 11.1646 137.484 11.7044C138.604 12.2449 139.465 13.1265 139.802 14.2205C140.14 15.3152 139.89 16.4135 139.214 17.3052C138.536 18.1983 137.431 18.8857 136.06 19.1549C134.081 19.5471 132.25 20.1912 130.614 21.0369C128.929 21.9085 127.451 22.9931 126.231 24.2375C125.017 25.4761 124.057 26.8824 123.403 28.401C122.769 29.875 122.428 31.4533 122.428 33.0863C122.428 35.0353 122.912 36.8893 123.788 38.5763C124.696 40.3274 126.033 41.9064 127.695 43.2321C129.357 44.5585 131.336 45.6252 133.53 46.3499C135.645 47.0488 137.969 47.4345 140.411 47.4345C142.853 47.4345 145.177 47.0488 147.292 46.3499C149.486 45.6252 151.466 44.5585 153.128 43.2321C154.789 41.9064 156.126 40.3274 157.035 38.5763C157.911 36.8893 158.394 35.0353 158.394 33.0863C158.394 32.4076 158.338 31.7462 158.228 31.1057C158.117 30.4572 157.951 29.8159 157.728 29.1869C157.503 28.5521 157.226 27.9317 156.897 27.3308C156.569 26.732 156.187 26.1476 155.754 25.5833C155.019 24.6225 154.843 23.5141 155.15 22.5001C155.458 21.4853 156.251 20.564 157.455 19.9782C158.66 19.3923 160.048 19.2513 161.32 19.4967C162.592 19.7421 163.745 20.3748 164.48 21.3356C165.156 22.2165 165.753 23.132 166.27 24.0748C166.79 25.0234 167.225 25.995 167.574 26.9839C167.926 27.9792 168.192 28.9926 168.372 30.016C168.55 31.0416 168.641 32.0672 168.641 33.0863C168.641 36.1321 167.88 39.0405 166.501 41.697C165.068 44.4585 162.971 46.9394 160.373 49.0128C157.774 51.0863 154.664 52.759 151.203 53.9026C147.874 55.003 144.229 55.6105 140.411 55.6105C137.173 55.6105 134.06 55.1736 131.157 54.3697C130.25 54.8807 129.399 55.4536 128.614 56.0797C124.986 58.9749 122.91 62.8631 122.898 66.9632L122.852 82.3365H129.292C132.121 82.3365 134.415 84.1669 134.415 86.4243C134.415 88.6818 132.121 90.5122 129.292 90.5122H121.179C121.219 90.4487 121.252 90.3817 121.277 90.312C121.327 90.1985 121.353 90.0839 121.353 89.9521V89.513C121.353 89.3171 121.29 89.1331 121.179 88.9727H129.292C131.056 88.9727 132.485 87.8319 132.485 86.4243C132.485 85.0168 131.056 83.876 129.292 83.876H122.847H121.33H120.925L120.942 78.1578L120.976 66.9632C120.983 64.6786 121.563 62.4967 122.608 60.5048C122.628 60.4672 122.648 60.4295 122.668 60.3919L122.687 60.3561C122.701 60.3294 122.716 60.3028 122.73 60.2763L122.75 60.2407C122.766 60.2117 122.782 60.1828 122.798 60.1539L122.814 60.1261C122.834 60.0887 122.856 60.0515 122.877 60.0144L122.888 59.9949C122.907 59.9619 122.926 59.9289 122.945 59.8962L122.958 59.8748C122.976 59.8426 122.995 59.8103 123.015 59.778L123.026 59.7584C123.072 59.681 123.119 59.6039 123.167 59.5271L123.177 59.5104C123.197 59.4785 123.217 59.4466 123.237 59.4147L123.252 59.3919C123.326 59.2752 123.402 59.1591 123.479 59.0438L123.48 59.0417C123.506 59.0031 123.532 58.9645 123.559 58.926L123.56 58.9236C124.934 56.9139 126.806 55.1362 129.05 53.7083H129.05C129.641 53.3326 130.257 52.9813 130.895 52.6575C133.842 53.5701 137.051 54.071 140.411 54.071C143.98 54.071 147.377 53.506 150.472 52.4833C153.684 51.4217 156.579 49.8621 159.008 47.9246C161.437 45.9865 163.392 43.6762 164.722 41.114C166.004 38.6447 166.711 35.9335 166.711 33.0863C166.711 32.1219 166.628 31.1661 166.465 30.2269C166.299 29.2754 166.05 28.3305 165.721 27.3984C165.393 26.4729 164.988 25.5675 164.507 24.6887C164.027 23.8128 163.469 22.96 162.837 22.1352C162.379 21.5357 161.659 21.1413 160.867 20.988C160.075 20.8354 159.209 20.9232 158.458 21.2895C157.706 21.6551 157.212 22.2287 157.02 22.8606C156.828 23.4925 156.938 24.1835 157.397 24.783C157.874 25.4041 158.295 26.0504 158.66 26.7169C159.028 27.3876 159.336 28.0742 159.582 28.7724C159.826 29.4626 160.011 30.1737 160.135 30.9006C160.261 31.6289 160.324 32.3594 160.324 33.0863C160.324 35.2339 159.787 37.2851 158.814 39.16C157.802 41.109 156.324 42.8593 154.492 44.321C152.66 45.7828 150.466 46.9617 148.023 47.7692C145.674 48.5458 143.102 48.974 140.411 48.974C137.72 48.974 135.149 48.5458 132.799 47.7692C130.356 46.9617 128.162 45.7828 126.331 44.321C124.499 42.8593 123.021 41.109 122.009 39.16C121.036 37.2851 120.498 35.2339 120.498 33.0863C120.498 31.2813 120.877 29.5353 121.579 27.9022C122.299 26.2289 123.364 24.6729 124.716 23.2932C126.068 21.9142 127.704 20.713 129.566 19.75C131.381 18.8115 133.41 18.0976 135.6 17.6629C136.453 17.4959 137.141 17.0677 137.563 16.5113C137.986 15.9536 138.143 15.2684 137.933 14.5875C137.723 13.9067 137.187 13.3576 136.489 13.0215C135.79 12.6832 134.931 12.5587 134.078 12.7257C131.187 13.2993 128.508 14.2414 126.114 15.4807C123.651 16.7561 121.487 18.3445 119.701 20.1675C117.91 21.9948 116.497 24.0539 115.54 26.2649C114.611 28.4111 114.111 30.7091 114.111 33.0863C114.111 35.9335 114.818 38.6447 116.1 41.114C117.431 43.6762 119.385 45.9865 121.814 47.9246C122.725 48.6508 123.701 49.3245 124.735 49.9384C124.049 50.3882 123.392 50.8639 122.765 51.3634L122.746 51.3778C122.666 51.4419 122.587 51.5059 122.508 51.57L122.491 51.5837C122.426 51.6376 122.361 51.6909 122.296 51.7449L122.216 51.8125C122.173 51.8485 122.131 51.8838 122.09 51.9198C122.03 51.9709 121.97 52.0227 121.91 52.0738C121.882 52.099 121.853 52.1234 121.825 52.1486C121.78 52.1875 121.735 52.2278 121.691 52.2674L121.636 52.3156C120.638 53.2095 119.736 54.161 118.938 55.1606L118.938 55.1614C118.812 55.319 118.689 55.4773 118.568 55.6371L118.521 55.7004C118.489 55.7429 118.458 55.7846 118.427 55.8271C118.402 55.8602 118.378 55.8933 118.354 55.9271C118.316 55.9782 118.279 56.03 118.242 56.0811C118.208 56.1294 118.174 56.1769 118.14 56.2251C118.123 56.2496 118.106 56.2748 118.088 56.2992C118.047 56.3582 118.007 56.4171 117.966 56.4762L117.942 56.5116C117.834 56.6707 117.729 56.831 117.626 56.9923L117.625 56.9932C117.302 57.4988 117.002 58.0152 116.728 58.5414C115.419 61.0547 114.672 63.7986 114.617 66.6704L114.616 66.6815C114.615 66.7752 114.613 66.8692 114.613 66.9632L114.562 83.876H114.259H112.64H106.123C104.359 83.876 102.93 85.0169 102.93 86.4243C102.93 87.8319 104.359 88.9727 106.123 88.9727H113.795C113.82 89.06 113.858 89.1435 113.906 89.2218C113.931 89.3085 113.97 89.3934 114.021 89.4743C114.045 89.5286 114.075 89.5774 114.107 89.6288C114.131 89.6827 114.151 89.7377 114.179 89.7905V89.9345H114.179C114.179 90.1452 114.249 90.3293 114.375 90.5122H106.123Z" fill="#EA3333"/>
<path fill-rule="evenodd" clip-rule="evenodd" d="M221.01 59.3485H214.931H213.831H213.001V26.8496C213.001 23.8732 212.255 21.033 210.905 18.4414C208.097 13.053 202.667 8.71987 195.913 6.48012C192.915 5.48537 189.733 4.92977 186.496 4.82589C184.389 4.8007 184.041 5.0604 183.805 5.1572C182.342 4.36472 180.747 3.67217 179.097 3.12679C176.003 2.1045 172.605 1.53945 169.036 1.53945C165.467 1.53945 162.07 2.1045 158.975 3.12679C155.763 4.18843 152.868 5.74822 150.439 7.68577C148.01 9.62411 146.056 11.9339 144.725 14.4971C143.443 16.9659 142.736 19.677 142.736 22.5243C142.736 23.6182 142.843 24.7003 143.053 25.7596C143.267 26.837 143.587 27.9041 144.01 28.9508C144.426 29.9825 144.945 30.9914 145.563 31.9681C146.179 32.9408 146.888 33.8757 147.687 34.7634C148.2 35.3316 148.954 35.681 149.758 35.7857C150.563 35.8896 151.416 35.7503 152.129 35.3411C152.841 34.9318 153.278 34.3306 153.41 33.6884C153.541 33.047 153.365 32.3655 152.852 31.7973C152.245 31.1229 151.709 30.4169 151.249 29.6874C150.784 28.9516 150.391 28.1858 150.073 27.3973C149.761 26.6253 149.524 25.8249 149.365 25.0041C149.205 24.1793 149.123 23.3506 149.123 22.5243C149.123 20.3766 149.66 18.325 150.634 16.4504C151.645 14.5018 153.124 12.7508 154.956 11.2894C156.787 9.82794 158.981 8.64825 161.424 7.8416C163.774 7.06485 166.344 6.63594 169.036 6.63594C171.727 6.63594 174.298 7.06485 176.648 7.8416C179.091 8.64825 181.285 9.82794 183.117 11.2894C184.949 12.7508 186.426 14.5018 187.438 16.4504C188.412 18.325 188.948 20.3766 188.948 22.5243C188.948 24.2785 188.586 25.9847 187.911 27.5893C187.218 29.2349 186.199 30.7664 184.905 32.1278C183.61 33.4917 182.039 34.6887 180.245 35.6629C178.497 36.6128 176.538 37.351 174.419 37.8256C173.571 38.0152 172.902 38.4607 172.502 39.0281C172.102 39.5963 171.972 40.2857 172.21 40.9617C172.448 41.6369 173.006 42.1721 173.717 42.4908C174.429 42.8103 175.293 42.9126 176.141 42.723C178.942 42.0957 181.529 41.1207 183.837 39.8662C186.206 38.5787 188.283 36.9961 189.996 35.1939C191.71 33.3886 193.06 31.3668 193.972 29.2034C194.86 27.0967 195.336 24.8475 195.336 22.5243C195.336 19.677 194.629 16.9659 193.348 14.4971C192.599 13.0561 191.654 11.6954 190.538 10.4363C191.532 10.6354 192.494 10.8762 193.428 11.18C198.619 12.8924 202.817 16.2096 204.996 20.3892C206.038 22.385 206.613 24.5681 206.613 26.8496V59.3485H205.899H204.684H198.605C198.34 59.3485 198.09 59.4634 197.899 59.6489C197.666 59.8757 197.521 60.2005 197.521 60.5696C197.521 60.9213 197.663 61.3018 197.977 61.5581L209.098 72.105L209.1 72.1036C209.511 72.4928 210.104 72.4928 210.515 72.1036L210.517 72.105L221.638 61.5581C221.951 61.3018 222.093 60.9213 222.093 60.5696C222.093 60.2005 221.949 59.8757 221.716 59.6489C221.525 59.4634 221.274 59.3485 221.01 59.3485ZM214.931 57.8089H221.01C221.877 57.8089 222.65 58.1398 223.2 58.6747C223.708 59.1685 224.023 59.8392 224.023 60.5696C224.023 61.3236 223.687 62.0777 223.024 62.6232L211.985 73.0959C211.434 73.6164 210.669 73.9345 209.807 73.9286C208.946 73.9345 208.18 73.6164 207.63 73.0959L196.591 62.6232C195.928 62.0777 195.592 61.3236 195.592 60.5696C195.592 59.8392 195.906 59.1685 196.414 58.6747C196.965 58.1398 197.738 57.8089 198.605 57.8089H204.684V26.8496C204.684 24.7719 204.162 22.7887 203.218 20.9787C201.561 17.804 198.595 15.1487 194.88 13.4559C194.964 13.6078 195.046 13.7597 195.126 13.9132C196.505 16.57 197.266 19.4787 197.266 22.5243C197.266 25.0072 196.752 27.4209 195.796 29.6906C194.814 32.0192 193.368 34.1889 191.533 36.1202C189.695 38.0546 187.467 39.7529 184.922 41.1356C182.443 42.4829 179.666 43.5296 176.661 44.2025C175.3 44.507 173.916 44.3433 172.775 43.8318C171.634 43.3203 170.737 42.4617 170.356 41.3764C169.975 40.2912 170.18 39.1863 170.82 38.2765C171.461 37.366 172.539 36.6506 173.899 36.3461C175.814 35.9171 177.582 35.2514 179.16 34.3943C180.779 33.5145 182.198 32.4332 183.368 31.2016C184.54 29.9668 185.464 28.5833 186.087 27.1022C186.694 25.6604 187.019 24.1195 187.019 22.5243C187.019 20.5757 186.536 18.7216 185.66 17.0343C184.751 15.2833 183.414 13.7038 181.752 12.3778C180.09 11.0517 178.111 9.98533 175.917 9.26052C173.802 8.56168 171.478 8.17606 169.036 8.17606C166.594 8.17606 164.27 8.56168 162.155 9.26052C159.961 9.98533 157.982 11.0517 156.32 12.3778C154.658 13.7038 153.321 15.2833 152.412 17.0343C151.537 18.7216 151.053 20.5757 151.053 22.5243C151.053 23.2971 151.124 24.0479 151.264 24.7696C151.407 25.5046 151.621 26.227 151.905 26.9282C152.19 27.6365 152.546 28.3283 152.967 28.9956C153.388 29.6614 153.871 30.2989 154.413 30.9009C155.237 31.8146 155.519 32.9069 155.309 33.9355C155.099 34.9633 154.397 35.9282 153.252 36.5861C152.107 37.2432 150.738 37.4683 149.449 37.3007C148.16 37.133 146.951 36.5727 146.127 35.6598C145.263 34.6997 144.501 33.6963 143.845 32.6598C143.184 31.6155 142.627 30.5318 142.178 29.4198C141.726 28.3 141.384 27.1573 141.154 26.0004C140.923 24.8404 140.806 23.678 140.806 22.5243C140.806 19.4787 141.567 16.57 142.946 13.9132C144.38 11.1524 146.476 8.67107 149.075 6.59737C151.674 4.52368 154.783 2.85135 158.244 1.70786C161.574 0.607666 165.219 0.000114441 169.036 0.000114441C172.853 0.000114441 176.499 0.607666 179.828 1.70786C181.282 2.18793 182.672 2.76163 183.99 3.41876C184.439 3.31882 184.904 3.26766 185.376 3.26766C189.361 3.26766 193.17 3.90591 196.652 5.0604C203.886 7.45991 209.677 12.0803 212.684 17.852C214.131 20.63 214.931 23.6694 214.931 26.8496V57.8089Z" fill="#21B8F1"/>
<path fill-rule="evenodd" clip-rule="evenodd" d="M0 136.459L3.01534 136.244C3.15652 137.216 3.48959 138.014 4.01455 138.64C4.53977 139.261 5.35283 139.766 6.45397 140.153C7.55511 140.536 8.79745 140.73 10.175 140.73C11.4001 140.73 12.4787 140.586 13.416 140.293C14.3533 140 15.0481 139.599 15.5054 139.09C15.9625 138.581 16.1942 138.027 16.1942 137.432C16.1942 136.829 15.974 136.302 15.5335 135.847C15.0933 135.396 14.3645 135.018 13.3484 134.707C12.6989 134.509 11.259 134.194 9.02885 133.766C6.79849 133.338 5.23998 132.937 4.34789 132.558C3.19032 132.072 2.33203 131.468 1.76729 130.752C1.19709 130.036 0.914714 129.23 0.914714 128.342C0.914714 127.36 1.26469 126.446 1.95943 125.599C2.65392 124.748 3.66458 124.104 5.00285 123.662C6.3354 123.221 7.82058 123 9.45214 123C11.2478 123 12.8346 123.23 14.2067 123.694C15.5788 124.153 16.6347 124.833 17.3744 125.734C18.1141 126.631 18.5093 127.649 18.5658 128.784L15.4828 128.973C15.319 127.752 14.76 126.829 13.8058 126.207C12.8515 125.581 11.4399 125.27 9.57644 125.27C7.63416 125.27 6.21684 125.554 5.33046 126.122C4.44383 126.689 3.99766 127.374 3.99766 128.176C3.99766 128.869 4.31382 129.441 4.94071 129.892C5.56187 130.338 7.17134 130.802 9.77976 131.27C12.3884 131.743 14.1783 132.153 15.1497 132.505C16.5556 133.023 17.6001 133.676 18.2722 134.473C18.9443 135.266 19.2771 136.18 19.2771 137.216C19.2771 138.248 18.9103 139.212 18.1705 140.121C17.4308 141.032 16.3749 141.739 14.9914 142.243C13.6081 142.748 12.0554 143 10.3219 143C8.13104 143 6.29589 142.743 4.81643 142.234C3.33151 141.725 2.1742 140.96 1.33255 139.932C0.485699 138.91 0.0452418 137.752 0 136.459ZM23.7155 142.676V123.324H41.2308V125.595H26.9339V131.541H40.3161V133.811H26.9339V140.405H41.807V142.676H23.7155ZM43.7831 142.676L53.1565 132.635L44.9011 123.324H48.7238L53.145 128.275C54.0655 129.302 54.7035 130.086 55.0704 130.631C55.6182 129.955 56.262 129.234 57.0015 128.473L61.8463 123.324H65.3642L56.9396 132.523L66.008 142.676H62.0668L55.9456 135.775C55.5956 135.383 55.2626 134.991 54.9521 134.603C54.4097 135.252 54.0259 135.707 53.7888 135.964L47.6396 142.676H43.7831ZM84.7318 123.324H87.9502V134.5C87.9502 136.446 87.6736 137.991 87.1258 139.135C86.5724 140.275 85.5787 141.207 84.1445 141.923C82.7045 142.64 80.8244 143 78.4867 143C76.2225 143 74.3647 142.689 72.925 142.063C71.4794 141.437 70.4518 140.536 69.8364 139.351C69.2207 138.167 68.9102 136.55 68.9102 134.5V123.324H72.1286V134.495C72.1286 136.176 72.3262 137.419 72.716 138.212C73.1055 139.009 73.7719 139.626 74.7261 140.054C75.6746 140.486 76.8379 140.703 78.2103 140.703C80.5589 140.703 82.236 140.275 83.2355 139.424C84.235 138.568 84.7318 136.928 84.7318 134.495V123.324ZM90.6494 142.676L99.9547 123.324H103.484L113.36 142.676H109.706L106.9 136.811H96.6855L94.054 142.676H90.6494ZM97.6286 134.73H105.895L103.365 129.365C102.603 127.734 102.027 126.387 101.626 125.324C101.293 126.586 100.847 127.824 100.288 129.05L97.6286 134.73ZM115.771 142.676V123.324H118.989V140.405H130.915V142.676H115.771ZM142.902 142.676V123.324H152.061C153.67 123.324 154.901 123.387 155.754 123.509C156.945 123.667 157.944 123.968 158.752 124.41C159.559 124.856 160.209 125.477 160.7 126.275C161.191 127.072 161.434 127.95 161.434 128.91C161.434 130.55 160.779 131.942 159.463 133.076C158.154 134.216 155.776 134.784 152.343 134.784H146.121V142.676H142.902ZM146.121 132.513H152.388C154.466 132.513 155.934 132.207 156.81 131.59C157.679 130.973 158.114 130.108 158.114 128.987C158.114 128.18 157.86 127.486 157.346 126.91C156.832 126.333 156.155 125.951 155.319 125.766C154.777 125.653 153.777 125.595 152.326 125.595H146.121V132.513ZM165.566 142.676V123.324H176.318C178.481 123.324 180.124 123.5 181.247 123.847C182.371 124.194 183.27 124.807 183.941 125.685C184.612 126.563 184.947 127.536 184.947 128.599C184.947 129.973 184.388 131.131 183.275 132.072C182.163 133.014 180.447 133.608 178.119 133.865C178.972 134.189 179.617 134.514 180.056 134.829C180.995 135.514 181.879 136.374 182.711 137.405L186.905 142.676H182.896L179.69 138.649C178.756 137.482 177.984 136.595 177.381 135.978C176.77 135.36 176.229 134.932 175.748 134.685C175.275 134.442 174.783 134.27 174.287 134.171C173.925 134.113 173.33 134.081 172.501 134.081H168.785V142.676H165.566ZM168.785 131.865H175.675C177.142 131.865 178.283 131.743 179.107 131.5C179.932 131.261 180.558 130.874 180.982 130.338C181.411 129.806 181.627 129.23 181.627 128.604C181.627 127.689 181.214 126.933 180.384 126.343C179.555 125.752 178.244 125.459 176.453 125.459H168.785V131.865ZM188.983 133.257C188.983 130.05 190.067 127.536 192.23 125.721C194.393 123.905 197.183 123 200.605 123C202.846 123 204.861 123.428 206.663 124.279C208.457 125.131 209.83 126.32 210.774 127.847C211.715 129.369 212.191 131.099 212.191 133.031C212.191 134.991 211.695 136.748 210.699 138.293C209.705 139.842 208.299 141.014 206.481 141.806C204.659 142.604 202.693 143 200.587 143C198.301 143 196.263 142.559 194.461 141.68C192.664 140.802 191.299 139.603 190.374 138.081C189.445 136.563 188.983 134.955 188.983 133.257ZM192.303 133.302C192.303 135.631 193.088 137.464 194.659 138.802C196.229 140.14 198.197 140.811 200.569 140.811C202.987 140.811 204.968 140.135 206.533 138.784C208.091 137.432 208.871 135.514 208.871 133.027C208.871 131.455 208.538 130.081 207.87 128.91C207.204 127.739 206.229 126.829 204.947 126.185C203.658 125.54 202.22 125.216 200.621 125.216C198.351 125.216 196.398 125.838 194.76 127.081C193.122 128.325 192.303 130.396 192.303 133.302ZM216.182 142.676V123.324H225.285C227.137 123.324 228.621 123.518 229.747 123.91C230.862 124.302 231.739 124.906 232.371 125.721C233.01 126.532 233.325 127.383 233.325 128.275C233.325 129.099 233.044 129.878 232.485 130.608C231.926 131.338 231.078 131.928 229.942 132.378C231.411 132.721 232.54 133.306 233.325 134.135C234.115 134.96 234.51 135.937 234.51 137.063C234.51 137.973 234.269 138.816 233.788 139.595C233.309 140.374 232.716 140.973 232.009 141.396C231.305 141.815 230.418 142.135 229.357 142.351C228.288 142.568 226.986 142.676 225.439 142.676H216.182ZM219.401 131.459H224.648C226.07 131.459 227.092 131.383 227.709 131.234C228.525 131.041 229.141 130.716 229.555 130.266C229.965 129.815 230.176 129.252 230.176 128.572C230.176 127.928 229.984 127.36 229.594 126.874C229.209 126.383 228.655 126.045 227.937 125.865C227.222 125.685 225.99 125.595 224.25 125.595H219.401V131.459ZM219.401 140.405H225.444C226.481 140.405 227.209 140.374 227.633 140.311C228.369 140.207 228.988 140.031 229.487 139.784C229.984 139.536 230.389 139.176 230.712 138.703C231.034 138.23 231.19 137.685 231.19 137.068C231.19 136.342 230.959 135.716 230.491 135.18C230.028 134.644 229.383 134.27 228.559 134.054C227.742 133.838 226.554 133.73 225.015 133.73H219.401V140.405ZM238.78 142.676V123.324H241.999V140.405H253.923V142.676H238.78ZM257.826 142.676V123.324H275.342V125.595H261.044V131.541H274.427V133.811H261.044V140.405H275.917V142.676H257.826ZM280.288 142.676V123.324H285.098L290.836 137.022C291.367 138.297 291.752 139.252 291.993 139.887C292.269 139.185 292.703 138.149 293.291 136.784L299.131 123.324H303.426V142.676H300.345V126.486L293.262 142.676H290.374L283.372 126.189V142.676H280.288ZM307.526 136.459L310.543 136.244C310.683 137.216 311.016 138.014 311.541 138.64C312.066 139.261 312.88 139.766 313.98 140.153C315.082 140.536 316.323 140.73 317.701 140.73C318.928 140.73 320.004 140.586 320.943 140.293C321.879 140 322.576 139.599 323.031 139.09C323.488 138.581 323.72 138.027 323.72 137.432C323.72 136.829 323.501 136.302 323.059 135.847C322.62 135.396 321.892 135.018 320.875 134.707C320.225 134.509 318.785 134.194 316.554 133.766C314.326 133.338 312.766 132.937 311.874 132.558C310.717 132.072 309.859 131.468 309.295 130.752C308.723 130.036 308.442 129.23 308.442 128.342C308.442 127.36 308.79 126.446 309.487 125.599C310.181 124.748 311.19 124.104 312.529 123.662C313.863 123.221 315.348 123 316.978 123C318.775 123 320.361 123.23 321.733 123.694C323.106 124.153 324.162 124.833 324.9 125.734C325.641 126.631 326.037 127.649 326.091 128.784L323.01 128.973C322.846 127.752 322.287 126.829 321.333 126.207C320.379 125.581 318.967 125.27 317.103 125.27C315.16 125.27 313.743 125.554 312.857 126.122C311.97 126.689 311.525 127.374 311.525 128.176C311.525 128.869 311.84 129.441 312.467 129.892C313.088 130.338 314.698 130.802 317.305 131.27C319.916 131.743 321.705 132.153 322.677 132.505C324.081 133.023 325.127 133.676 325.797 134.473C326.471 135.266 326.804 136.18 326.804 137.216C326.804 138.248 326.437 139.212 325.696 140.121C324.958 141.032 323.902 141.739 322.519 142.243C321.135 142.748 319.583 143 317.849 143C315.657 143 313.821 142.743 312.342 142.234C310.857 141.725 309.7 140.96 308.858 139.932C308.013 138.91 307.571 137.752 307.526 136.459Z" fill="white"/>
</svg>
